<?xml version="1.0" encoding="UTF-8"?>
<svg width="31px" height="31px" viewBox="0 0 31 31" version="1.1" xmlns="http://www.w3.org/2000/svg" xmlns:xlink="http://www.w3.org/1999/xlink">
    <!-- Generator: Sketch 54.1 (76490) - https://sketchapp.com -->
    <title>Facebook</title>
    <desc>Created with Sketch.</desc>
    <defs>
        <path d="M30.525,3.7 L6.475,3.7 C4.944125,3.704625 3.704625,4.944125 3.7,6.475 L3.7,30.525 C3.704625,32.055875 4.944125,33.295375 6.475,33.3 L19.425,33.3 L19.425,21.275 L16.1875,21.275 L16.1875,16.65 L19.425,16.65 L19.425,14.3375 C19.499925,11.744725 20.17055,9.437775 24.5675375,9.25 L28.2125,9.25 L28.2125,13.8343 L25.131325,13.8343 C24.328425,13.7862 23.6379125,14.3980875 23.5898125,15.20145 C23.5888875,15.2218 23.5879625,15.24215 23.5875,15.2625 L23.5875,16.65 L28.2125,16.65 L27.423475,21.275 L23.5875,21.275 L23.5875,33.3 L30.525,33.3 C32.055875,33.295375 33.295375,32.055875 33.3,30.525 L33.3,6.475 C33.295375,4.944125 32.055875,3.704625 30.525,3.7" id="path-1"></path>
    </defs>
    <g id="Symbols" stroke="none" stroke-width="1" fill="none" fill-rule="evenodd">
        <g id="Footer" transform="translate(-154.000000, -203.000000)">
            <g id="ðŸ¼Icons/Social/FacebookðŸ¼" transform="translate(151.000000, 200.000000)">
                <mask id="mask-2" fill="white">
                    <use xlink:href="#path-1"></use>
                </mask>
                <use id="Mask" fill="#FFFFFF" fill-rule="evenodd" xlink:href="#path-1"></use>
            </g>
        </g>
    </g>
</svg>