<?xml version="1.0" encoding="UTF-8"?>
<svg width="22px" height="22px" viewBox="0 0 22 22" version="1.1" xmlns="http://www.w3.org/2000/svg" xmlns:xlink="http://www.w3.org/1999/xlink">
    <!-- Generator: Sketch 52 (66869) - http://www.bohemiancoding.com/sketch -->
    <title>icon-first</title>
    <desc>Created with Sketch.</desc>
    <g id="Symbols" stroke="none" stroke-width="1" fill="none" fill-rule="evenodd">
        <g id="ðŸ¼Icons/PlaceholderðŸ¼-Copy-5" transform="translate(-1.000000, -1.000000)" fill="#25408F">
            <path d="M11.989,1 C10.545,1 9.165,1.329 7.886,1.978 C6.667,2.596 5.585,3.5 4.756,4.591 L6.119,5.627 C7.527,3.775 9.666,2.713 11.989,2.713 C14.334,2.713 16.486,3.792 17.893,5.672 L19.265,4.647 C18.437,3.539 17.35,2.622 16.123,1.993 C14.854,1.343 13.424,1 11.989,1 Z M20.706,5.866 C20.459,6.005 18.291,7.278 17.833,9.11 C17.543,10.269 17.919,11.416 18.266,12.147 C18.148,12.243 18.036,12.348 17.933,12.461 C17.412,13.029 17.139,13.723 16.999,14.359 C16.613,15.726 15.685,16.715 14.238,17.3 C13.34,17.665 12.49,17.766 12.13,17.795 C12.083,17.792 12.036,17.789 11.989,17.789 C11.944,17.789 11.899,17.792 11.855,17.794 C11.021,17.729 7.756,17.281 6.972,14.256 L6.94,14.264 C6.796,13.655 6.529,13.003 6.041,12.465 C5.948,12.361 5.847,12.265 5.742,12.176 C6.092,11.447 6.481,10.284 6.188,9.11 C5.73,7.278 3.562,6.005 3.316,5.866 L2.455,5.378 L2.095,6.301 C2.062,6.387 1.275,8.443 1.717,10.215 C1.784,10.481 1.88,10.731 1.997,10.965 L1.036,10.938 L1.159,11.927 C1.17,12.018 1.451,14.178 2.664,15.519 C2.777,15.643 2.895,15.756 3.02,15.86 C2.36,16.194 1.888,16.55 1.788,16.628 L1,17.238 L1.721,17.926 C1.788,17.99 3.366,19.475 5.152,19.758 C4.822,20.326 4.638,20.802 4.596,20.912 L4.248,21.846 L5.223,22.051 C5.273,22.062 5.955,22.2 6.838,22.2 C7.548,22.2 8.387,22.11 9.132,21.791 C9.329,21.707 9.512,21.606 9.683,21.494 C10.104,22.344 10.979,22.93 11.989,22.93 C13.004,22.93 13.883,22.339 14.3,21.483 C14.477,21.599 14.665,21.703 14.868,21.791 C15.613,22.11 16.452,22.2 17.162,22.2 C18.045,22.2 18.726,22.062 18.777,22.051 L19.752,21.846 L19.403,20.912 C19.363,20.802 19.177,20.326 18.849,19.758 C20.634,19.475 22.212,17.99 22.279,17.926 L23,17.238 L22.213,16.628 C22.111,16.55 21.638,16.194 20.975,15.857 C21.099,15.755 21.217,15.644 21.328,15.522 C22.556,14.181 22.839,12.02 22.852,11.928 L22.975,10.939 L22.024,10.964 C22.141,10.731 22.237,10.481 22.304,10.215 C22.746,8.443 21.959,6.387 21.925,6.301 L21.567,5.378 L20.706,5.866 Z M19.495,9.524 C19.631,8.983 20.134,8.437 20.625,8.02 C20.729,8.583 20.78,9.246 20.642,9.799 C20.498,10.372 20.083,10.846 19.706,11.175 C19.508,10.686 19.358,10.071 19.495,9.524 Z M3.38,9.799 C3.241,9.246 3.292,8.583 3.396,8.02 C3.888,8.437 4.39,8.983 4.525,9.524 C4.662,10.071 4.512,10.687 4.315,11.174 C3.938,10.845 3.523,10.371 3.38,9.799 Z M18.649,14.821 C18.663,14.776 18.675,14.731 18.687,14.685 L18.678,14.683 C18.764,14.307 18.921,13.918 19.196,13.618 C19.287,13.518 19.399,13.428 19.521,13.347 L19.814,13.191 C19.822,13.187 19.848,13.173 19.887,13.149 C20.201,13.007 20.552,12.904 20.885,12.83 C20.718,13.346 20.457,13.936 20.065,14.366 C19.67,14.797 19.087,15.017 18.602,15.131 C18.613,15.031 18.629,14.926 18.649,14.821 Z M3.934,14.368 C3.561,13.955 3.298,13.366 3.124,12.832 C3.733,12.967 4.404,13.208 4.77,13.614 C5.137,14.02 5.297,14.615 5.356,15.126 C4.883,15.012 4.318,14.792 3.934,14.368 Z M17.091,17.808 C17.051,17.784 17.013,17.76 16.972,17.738 C17.346,17.378 17.848,17.017 18.393,16.935 C18.944,16.852 19.626,17.095 20.191,17.381 C19.714,17.688 19.128,17.984 18.564,18.069 C18.468,18.084 18.372,18.09 18.276,18.09 C17.852,18.09 17.437,17.961 17.091,17.808 Z M5.436,18.069 C4.877,17.985 4.291,17.689 3.813,17.381 C4.377,17.096 5.059,16.853 5.607,16.935 C6.152,17.017 6.655,17.378 7.028,17.738 C6.988,17.76 6.948,17.784 6.909,17.808 C6.563,17.961 6.148,18.09 5.725,18.09 C5.629,18.09 5.532,18.084 5.436,18.069 Z M15.543,20.216 C15.008,19.987 14.613,19.515 14.35,19.098 C14.811,18.993 15.396,18.94 15.909,19.128 C16.015,19.186 16.129,19.245 16.251,19.303 C16.657,19.574 17.015,20.038 17.288,20.487 C17.248,20.488 17.208,20.488 17.167,20.488 C16.629,20.488 16.031,20.425 15.543,20.216 Z M6.713,20.486 C6.986,20.037 7.343,19.574 7.749,19.303 C7.872,19.245 7.986,19.186 8.09,19.128 C8.585,18.948 9.169,18.993 9.65,19.099 C9.387,19.515 8.991,19.987 8.456,20.216 C7.973,20.423 7.374,20.487 6.835,20.487 C6.794,20.487 6.753,20.486 6.713,20.486 Z M11.132,20.36 C11.132,19.927 11.457,19.567 11.876,19.511 C11.914,19.515 11.947,19.515 11.971,19.516 L11.971,19.518 C11.975,19.517 11.984,19.517 12,19.517 C12.015,19.517 12.025,19.517 12.029,19.518 L12.029,19.516 C12.05,19.515 12.076,19.515 12.108,19.512 C12.524,19.571 12.846,19.929 12.846,20.36 C12.846,20.832 12.462,21.216 11.989,21.216 C11.516,21.216 11.132,20.832 11.132,20.36 Z M11.132,6.526 C11.132,7.707 10.172,8.667 8.991,8.667 L8.991,10.38 C9.801,10.38 10.553,10.128 11.175,9.7 L11.175,14.192 L12.888,14.192 L12.888,6.533 L12.846,6.533 L12.846,6.526 L11.132,6.526 Z" id="icon-first"></path>
        </g>
    </g>
</svg>