<?xml version="1.0" encoding="UTF-8"?>
<svg width="70px" height="79px" viewBox="0 0 70 79" version="1.1" xmlns="http://www.w3.org/2000/svg" xmlns:xlink="http://www.w3.org/1999/xlink">
    <!-- Generator: Sketch 54.1 (76490) - https://sketchapp.com -->
    <title>icon-foot</title>
    <desc>Created with Sketch.</desc>
    <g id="Designs" stroke="none" stroke-width="1" fill="none" fill-rule="evenodd">
        <g id="Desktop---Products---The-Richie-Brace" transform="translate(-961.000000, -933.000000)" fill="#25408F" stroke="#25408F">
            <g id="Benefits" transform="translate(0.000000, 886.000000)">
                <g id="icon-foot" transform="translate(962.000000, 48.000000)">
                    <g id="Group-3" transform="translate(0.000000, 0.000150)">
                        <path d="M40.3890749,44.2787074 C40.3856071,44.2399823 40.3801792,44.2012571 40.3742989,44.1631324 L34.2956115,4.50287895 L56.439035,4.50287895 L54.7369242,42.9155222 C54.2080018,48.4421109 57.280667,51.5015476 59.5270794,53.7378497 C63.871239,58.0618575 63.9206936,63.2032961 62.5189286,66.5728341 C61.0141836,70.1880817 57.756667,72.3469335 53.8034696,72.3469335 C52.2657047,72.3469335 50.6183255,71.4504014 49.0250749,70.5838887 C45.0084009,68.3974189 43.7138377,68.0257776 38.1085871,69.8275476 C34.9982279,70.8271967 30.7383521,72.1962357 22.1269286,72.3374774 C15.7095982,72.443146 9.41228559,71.6081538 9.04650288,71.6081538 C6.79556718,71.6081538 4.52322129,70.4442981 4.52322129,67.8440096 C4.52322129,65.3609472 6.55281774,63.3410856 9.04650288,63.3410856 L9.04650288,65.5925476 C9.04650288,66.8361051 10.0595672,67.8440096 11.3081437,67.8440096 C12.5574741,67.8440096 13.5697845,66.8361051 13.5697845,65.5925476 L13.5697845,63.4243897 C14.212392,63.2138029 14.9940151,62.9083546 15.971647,62.4820778 C21.7070173,59.9832552 32.1571548,54.1804871 36.8535273,50.8983058 C39.2446847,49.6160232 40.6606226,46.979261 40.3890749,44.2787074 M34.655514,46.9616996 C34.5547956,47.0121324 34.457545,47.0702201 34.3657224,47.1352123 C28.4325339,51.3179784 14.6565783,58.5637834 11.8029907,59.2644384 C10.9141659,58.9812045 9.98945632,58.8381616 9.04650288,58.8381616 C4.05852949,58.8381616 -6.03104213e-05,62.8784852 -6.03104213e-05,67.8440096 C-6.03104213e-05,72.5932435 3.73993969,76.0519394 8.9123122,76.1104774 C13.8078599,76.6587834 18.2780683,76.9043429 22.2012612,76.8399511 C31.4869552,76.6880524 36.3081703,75.1384462 39.4985916,74.1129803 C43.6925783,72.7643546 43.8380772,72.892838 46.8554075,74.5350544 C48.8495716,75.6204092 51.1095539,76.8498575 53.8034696,76.8498575 C59.5617579,76.8498575 64.502086,73.5723292 66.6976869,68.2961031 C69.0624585,62.6134131 67.8509729,55.6562454 62.7251902,50.553532 C60.6714696,48.5090544 58.8980417,46.743608 59.2437712,43.2984209 C59.2478421,43.2566938 59.2508576,43.2151168 59.2531193,43.1735398 L61.0618288,2.35048129 C61.0889685,1.73718304 60.8634075,1.13904464 60.4364098,0.695206433 C60.0100151,0.250767836 59.4198776,-4.50292398e-05 58.8026004,-4.50292398e-05 L31.6629109,-4.50292398e-05 C31.0038687,-4.50292398e-05 30.3772435,0.286641131 29.9473809,0.784364327 C29.5179707,1.28208752 29.3276914,1.94176589 29.4272035,2.59078733 L35.8923299,44.7747795 C35.9634962,45.6782162 35.4706093,46.5523838 34.655514,46.9616996" id="Fill-1"></path>
                    </g>
                    <path d="M49.7560373,63.3412357 C53.4970927,63.3412357 56.5409596,60.3112181 56.5409596,56.5868497 C56.5409596,55.3432922 55.5284984,54.3353877 54.2793188,54.3353877 C53.0301392,54.3353877 52.017678,55.3432922 52.017678,56.5868497 C52.017678,57.8281558 51.0034075,58.8383117 49.7560373,58.8383117 C48.5091193,58.8383117 47.4943965,57.8281558 47.4943965,56.5868497 C47.4943965,55.3432922 46.4819353,54.3353877 45.2327557,54.3353877 C43.9835761,54.3353877 42.9711149,55.3432922 42.9711149,56.5868497 C42.9711149,60.3112181 46.0149818,63.3412357 49.7560373,63.3412357" id="Fill-4"></path>
                </g>
            </g>
        </g>
    </g>
</svg>