<?xml version="1.0" encoding="UTF-8"?>
<svg width="22px" height="26px" viewBox="0 0 22 26" version="1.1" xmlns="http://www.w3.org/2000/svg" xmlns:xlink="http://www.w3.org/1999/xlink">
    <!-- Generator: Sketch 54.1 (76490) - https://sketchapp.com -->
    <title>Green-Arrow</title>
    <desc>Created with Sketch.</desc>
    <g id="Symbols" stroke="none" stroke-width="1" fill="none" fill-rule="evenodd">
        <g id="Button/Primary-Copy-4" transform="translate(-309.000000, -12.000000)" stroke="#258F75" stroke-width="1.4">
            <g id="Green-Arrow" transform="translate(309.000000, 12.000000)">
                <path d="M0.702702703,24.7926641 C0.701210041,24.7926641 0.7,24.7938741 0.7,24.7953668 C0.7,24.7968595 0.701210041,24.7980695 0.702702703,24.7980695 L6.8597973,24.7980695 C6.86128996,24.7980695 6.8625,24.7968595 6.8625,24.7953668 C6.8625,24.7938741 6.86128996,24.7926641 6.8597973,24.7926641 L0.702702703,24.7926641 Z" id="Rectangle-2"></path>
                <path d="M0.702702703,19.9741313 C0.701210041,19.9741313 0.7,19.9753413 0.7,19.976834 C0.7,19.9783266 0.701210041,19.9795367 0.702702703,19.9795367 L14.4222973,19.9795367 C14.42379,19.9795367 14.425,19.9783266 14.425,19.976834 C14.425,19.9753413 14.42379,19.9741313 14.4222973,19.9741313 L0.702702703,19.9741313 Z" id="Rectangle-2"></path>
                <path d="M0.702702703,15.1555985 C0.701210041,15.1555985 0.7,15.1568085 0.7,15.1583012 C0.7,15.1597938 0.701210041,15.1610039 0.702702703,15.1610039 L21.2972973,15.1610039 C21.29879,15.1610039 21.3,15.1597938 21.3,15.1583012 C21.3,15.1568085 21.29879,15.1555985 21.2972973,15.1555985 L0.702702703,15.1555985 Z" id="Rectangle-2"></path>
                <path d="M0.702702703,10.3370656 C0.701210041,10.3370656 0.7,10.3382757 0.7,10.3397683 C0.7,10.341261 0.701210041,10.342471 0.702702703,10.342471 L21.2972973,10.342471 C21.29879,10.342471 21.3,10.341261 21.3,10.3397683 C21.3,10.3382757 21.29879,10.3370656 21.2972973,10.3370656 L0.702702703,10.3370656 Z" id="Rectangle-2"></path>
                <path d="M0.702702703,5.51853282 C0.701210041,5.51853282 0.7,5.51974286 0.7,5.52123552 C0.7,5.52272818 0.701210041,5.52393822 0.702702703,5.52393822 L14.4222973,5.52393822 C14.42379,5.52393822 14.425,5.52272818 14.425,5.52123552 C14.425,5.51974286 14.42379,5.51853282 14.4222973,5.51853282 L0.702702703,5.51853282 Z" id="Rectangle-2"></path>
                <path d="M0.702702703,0.7 C0.701210041,0.7 0.7,0.701210041 0.7,0.702702703 C0.7,0.704195364 0.701210041,0.705405405 0.702702703,0.705405405 L6.8597973,0.705405405 C6.86128996,0.705405405 6.8625,0.704195364 6.8625,0.702702703 C6.8625,0.701210041 6.86128996,0.7 6.8597973,0.7 L0.702702703,0.7 Z" id="Rectangle-2"></path>
            </g>
        </g>
    </g>
</svg>