<?xml version="1.0" encoding="UTF-8"?>
<svg width="22px" height="22px" viewBox="0 0 22 22" version="1.1" xmlns="http://www.w3.org/2000/svg" xmlns:xlink="http://www.w3.org/1999/xlink">
    <!-- Generator: Sketch 52 (66869) - http://www.bohemiancoding.com/sketch -->
    <title>icon-handshake</title>
    <desc>Created with Sketch.</desc>
    <g id="Symbols" stroke="none" stroke-width="1" fill="none" fill-rule="evenodd">
        <g id="ðŸ¼Icons/PlaceholderðŸ¼-Copy-6" transform="translate(-1.000000, -1.000000)" fill="#25408F">
            <path d="M1,1 L1,2.715 L6.277,2.715 C7.834,2.715 9.33,3.207 10.572,4.115 L9.103,5.683 C8.617,6.175 8.341,6.856 8.348,7.551 C8.355,8.247 8.63,8.893 9.125,9.37 C9.613,9.839 10.257,10.094 10.932,10.089 C11.611,10.082 12.249,9.815 12.729,9.334 L14.323,7.741 L14.531,7.74 L21.049,13.291 C21.314,13.576 21.307,14.024 21.029,14.301 C20.893,14.438 20.71,14.514 20.514,14.514 C20.318,14.514 20.135,14.438 19.998,14.301 L19.823,14.126 L18.609,15.338 L18.785,15.515 C18.869,15.597 18.954,15.671 19.045,15.74 L19.029,15.758 C19.312,16.042 19.312,16.504 19.029,16.788 C18.744,17.072 18.281,17.072 17.997,16.788 L17.706,16.5 L16.493,17.712 L16.691,17.91 C16.838,18.057 16.926,18.269 16.934,18.489 C16.938,18.609 16.92,18.836 16.751,19.005 C16.483,19.273 16.017,19.246 15.715,18.943 L15.691,18.919 L15.536,18.787 L14.373,20.047 C14.516,20.189 14.596,20.376 14.599,20.574 C14.601,20.764 14.529,20.943 14.396,21.076 C14.111,21.36 13.642,21.355 13.35,21.061 L13.227,20.94 C13.578,20.047 13.394,18.991 12.673,18.27 C12.35,17.947 11.958,17.721 11.531,17.608 C11.637,16.871 11.407,16.095 10.842,15.529 C10.418,15.106 9.875,14.871 9.32,14.824 C9.278,14.273 9.042,13.731 8.611,13.3 C8.185,12.873 7.639,12.638 7.08,12.593 C7.035,12.035 6.801,11.489 6.374,11.062 C5.423,10.112 3.877,10.109 2.923,11.056 L1.725,12.214 L1.714,12.224 C1.254,12.685 1,13.299 1,13.952 C1,14.607 1.254,15.22 1.714,15.681 C2.079,16.046 2.53,16.271 3.003,16.356 C2.981,17.01 3.218,17.67 3.715,18.168 C4.159,18.612 4.751,18.855 5.388,18.855 L5.425,18.855 C5.495,19.364 5.723,19.855 6.113,20.245 C6.587,20.719 7.211,20.956 7.836,20.956 C7.889,20.956 7.942,20.953 7.994,20.95 C8.085,21.449 8.322,21.908 8.687,22.272 C9.172,22.758 9.809,23 10.445,23 C11.068,23 11.689,22.769 12.17,22.305 C12.649,22.768 13.268,23 13.886,23 C14.511,23 15.135,22.763 15.609,22.289 C15.989,21.909 16.224,21.427 16.294,20.903 C16.904,20.902 17.507,20.674 17.964,20.217 C18.365,19.818 18.6,19.29 18.644,18.712 C19.225,18.682 19.798,18.444 20.241,18.001 C20.738,17.504 20.976,16.842 20.954,16.19 C21.426,16.104 21.878,15.879 22.242,15.515 C22.719,15.038 22.957,14.412 22.957,13.786 C22.957,13.16 22.719,12.534 22.242,12.058 L22.217,12.033 L16.827,7.443 L16.821,6.017 L13.609,6.029 L11.516,8.122 C11.187,8.45 10.649,8.455 10.315,8.134 C10.155,7.979 10.065,7.767 10.063,7.535 C10.06,7.292 10.157,7.055 10.327,6.885 L12.033,5.064 C13.406,3.599 15.346,2.758 17.354,2.758 L22.956,2.758 L22.956,1.043 L17.354,1.043 C15.354,1.043 13.41,1.718 11.844,2.927 C10.293,1.706 8.391,1.028 6.402,1 L1,1 Z M2.927,14.469 C2.791,14.332 2.715,14.148 2.715,13.952 C2.715,13.759 2.789,13.578 2.922,13.442 L4.119,12.286 L4.13,12.276 C4.267,12.139 4.45,12.064 4.646,12.064 C4.842,12.064 5.025,12.139 5.162,12.276 C5.298,12.412 5.373,12.595 5.373,12.791 C5.373,12.954 5.32,13.108 5.225,13.233 C5.202,13.254 5.18,13.275 5.158,13.296 L4.278,14.159 L3.969,14.458 L3.958,14.469 C3.822,14.605 3.638,14.68 3.443,14.68 C3.246,14.68 3.064,14.605 2.927,14.469 Z M4.928,16.955 C4.645,16.672 4.644,16.21 4.926,15.927 L5.475,15.388 L6.363,14.53 L6.374,14.519 C6.397,14.497 6.419,14.473 6.441,14.449 C6.727,14.23 7.137,14.252 7.398,14.513 C7.681,14.795 7.682,15.204 7.403,15.486 L5.939,16.921 C5.782,17.066 5.583,17.139 5.393,17.139 C5.219,17.139 5.052,17.078 4.928,16.955 Z M7.326,19.032 C7.042,18.747 7.047,18.28 7.338,17.989 L8.594,16.746 L8.597,16.742 C8.734,16.606 8.917,16.531 9.113,16.531 C9.309,16.531 9.492,16.606 9.628,16.742 C9.912,17.026 9.913,17.488 9.629,17.772 L8.373,19.016 L8.37,19.018 C8.222,19.167 8.028,19.241 7.836,19.241 C7.65,19.241 7.466,19.172 7.326,19.032 Z M9.9,21.06 C9.752,20.912 9.67,20.714 9.668,20.502 C9.665,20.294 9.742,20.101 9.883,19.961 L10.398,19.446 C10.535,19.308 10.713,19.24 10.896,19.24 C11.094,19.24 11.299,19.322 11.46,19.482 C11.76,19.784 11.76,20.273 11.46,20.574 L10.987,21.064 C10.837,21.211 10.641,21.285 10.446,21.285 C10.248,21.285 10.051,21.21 9.9,21.06 Z" id="icon-handshake"></path>
        </g>
    </g>
</svg>