<?xml version="1.0" encoding="UTF-8"?>
<svg width="77px" height="77px" viewBox="0 0 77 77" version="1.1" xmlns="http://www.w3.org/2000/svg" xmlns:xlink="http://www.w3.org/1999/xlink">
    <!-- Generator: Sketch 54.1 (76490) - https://sketchapp.com -->
    <title>icon-happy</title>
    <desc>Created with Sketch.</desc>
    <defs>
        <polygon id="path-1" points="0 6.015625e-05 77 6.015625e-05 77 77 0 77"></polygon>
    </defs>
    <g id="Designs" stroke="none" stroke-width="1" fill="none" fill-rule="evenodd">
        <g id="Desktop---Products---Geckos-orthotics" transform="translate(-965.000000, -890.000000)">
            <g id="icon-happy" transform="translate(965.000000, 890.000000)">
                <g id="Group-3">
                    <mask id="mask-2" fill="white">
                        <use xlink:href="#path-1"></use>
                    </mask>
                    <g id="Clip-2"></g>
                    <path d="M38.5,70.9844352 C20.5880254,70.9844352 6.015625,56.4120348 6.015625,38.5000602 C6.015625,20.5879352 20.5880254,6.01568516 38.5,6.01568516 C56.4119746,6.01568516 70.984375,20.5879352 70.984375,38.5000602 C70.984375,56.4120348 56.4119746,70.9844352 38.5,70.9844352 M65.7237109,11.2761988 C58.451873,4.00466172 48.7837109,6.015625e-05 38.5,6.015625e-05 C28.2162891,6.015625e-05 18.548127,4.00466172 11.2762891,11.2761988 C4.00475195,18.5481871 0,28.2163492 0,38.5000602 C0,48.7837711 4.00475195,58.4520836 11.2762891,65.7237711 C18.548127,72.9953082 28.2162891,77.0000602 38.5,77.0000602 C48.7837109,77.0000602 58.451873,72.9953082 65.7237109,65.7237711 C72.995248,58.4520836 77,48.7837711 77,38.5000602 C77,28.2163492 72.995248,18.5481871 65.7237109,11.2761988" id="Fill-1" fill="#25408F" mask="url(#mask-2)"></path>
                </g>
                <path d="M55.493118,42.9780012 C55.4822898,43.0101848 54.3955672,46.2303488 51.7301941,49.3536613 C48.3384344,53.3283352 44.0085379,55.3438703 38.8609676,55.3438703 C33.6762508,55.3438703 29.2066414,53.3042727 25.5765125,49.2825266 C22.7311219,46.1300383 21.4750594,42.8849094 21.4663367,42.8622004 L15.830448,44.9661652 C15.8936121,45.1349035 17.4145125,49.1459719 20.9456844,53.1283156 C25.7201355,58.513052 31.9151766,61.3594953 38.8609676,61.3594953 C45.8407469,61.3594953 51.9305145,58.4904934 56.4715594,53.0630461 C59.8279773,49.0512258 61.1584832,45.0094777 61.2135262,44.8393859 L55.493118,42.9780012 Z" id="Fill-4" fill="#25408F"></path>
                <path d="M25.265625,22.2758594 C27.9234785,22.2758594 30.078125,24.4305059 30.078125,27.0883594 C30.078125,29.7462129 27.9234785,31.9008594 25.265625,31.9008594 C22.6077715,31.9008594 20.453125,29.7462129 20.453125,27.0883594 C20.453125,24.4305059 22.6077715,22.2758594 25.265625,22.2758594" id="Fill-6" fill="#25408F"></path>
                <path d="M51.734375,22.2758594 C54.3922285,22.2758594 56.546875,24.4305059 56.546875,27.0883594 C56.546875,29.7462129 54.3922285,31.9008594 51.734375,31.9008594 C49.0765215,31.9008594 46.921875,29.7462129 46.921875,27.0883594 C46.921875,24.4305059 49.0765215,22.2758594 51.734375,22.2758594" id="Fill-8" fill="#25408F"></path>
            </g>
        </g>
    </g>
</svg>