<?xml version="1.0" encoding="UTF-8"?>
<svg width="77px" height="65px" viewBox="0 0 77 65" version="1.1" xmlns="http://www.w3.org/2000/svg" xmlns:xlink="http://www.w3.org/1999/xlink">
    <!-- Generator: Sketch 54.1 (76490) - https://sketchapp.com -->
    <title>icon-rotate</title>
    <desc>Created with Sketch.</desc>
    <defs>
        <polygon id="path-1" points="0 0.00449308756 76.999985 0.00449308756 76.999985 48.6790092 0 48.6790092"></polygon>
    </defs>
    <g id="Designs" stroke="none" stroke-width="1" fill="none" fill-rule="evenodd">
        <g id="Desktop---Products---The-Richie-Brace" transform="translate(-681.000000, -940.000000)">
            <g id="Benefits" transform="translate(0.000000, 886.000000)">
                <g id="icon-rotate" transform="translate(681.000000, 54.000000)">
                    <path d="M9.39897793,45.4697465 L4.13966738,48.4056797 C5.76629238,51.2954839 7.82273379,53.9146544 10.2515424,56.190553 L14.3829232,51.8175806 C12.4018275,49.9613364 10.7249721,47.8254724 9.39897793,45.4697465" id="Fill-1" fill="#25408F"></path>
                    <path d="M18.6747258,55.090106 L15.5148684,60.2033894 C18.3577023,61.9455092 21.4374016,63.2353249 24.6683937,64.0361429 L26.1247766,58.210106 C23.4959484,57.558159 20.9893879,56.5087235 18.6747258,55.090106" id="Fill-3" fill="#25408F"></path>
                    <path d="M36.4139166,58.7253733 C35.1719908,58.9018018 33.9010396,58.9912143 32.6350514,58.9912143 L32.6332467,58.9912143 L32.5572994,58.9912143 C32.1968131,58.9912143 31.8321158,58.9840253 31.4734342,58.9694977 L31.2314557,64.9691175 C31.6705963,64.9864908 32.1166549,64.995477 32.5580514,64.995477 L32.6327955,64.995477 L32.6361041,64.995477 C34.1848268,64.995477 35.7422721,64.8858456 37.2649771,64.6695783 L36.4139166,58.7253733 Z" id="Fill-5" fill="#25408F"></path>
                    <path d="M45.344909,55.7669896 C44.1607332,56.412197 42.918657,56.9700887 41.6529695,57.4258376 L43.7029441,63.0723007 C45.258284,62.512462 46.7842977,61.8265173 48.238575,61.0345357 L45.344909,55.7669896 Z" id="Fill-7" fill="#25408F"></path>
                    <path d="M52.6812193,49.8740507 C51.7967721,50.889788 50.826151,51.8463664 49.7968775,52.7168272 L53.7001158,57.2930369 C54.9617428,56.2257788 56.1513326,55.0532327 57.2357994,53.8080484 L52.6812193,49.8740507 Z" id="Fill-9" fill="#25408F"></path>
                    <g id="Group-13" transform="translate(0.000000, 0.145276)">
                        <mask id="mask-2" fill="white">
                            <use xlink:href="#path-1"></use>
                        </mask>
                        <g id="Clip-12"></g>
                        <path d="M72.7362604,29.62697 L65.1146139,37.2184908 L65.1146139,32.4273618 C65.1146139,23.7670853 61.7281178,15.6248618 55.5787955,9.50093318 C49.4296236,3.37715438 41.2536373,0.00449308756 32.5572994,0.00449308756 C23.8611119,0.00449308756 15.6851256,3.37700461 9.53580332,9.50078341 C3.38648105,15.6245622 -1.50390625e-05,23.7669355 -1.50390625e-05,32.4273618 C-1.50390625e-05,35.7594355 0.506199805,39.046129 1.50449277,42.1960829 L7.25407676,40.3886636 C6.44121543,37.824159 6.02914512,35.14553 6.02914512,32.4273618 C6.02914512,17.860023 17.9295553,6.00875576 32.5572994,6.00875576 C47.1850436,6.00875576 59.0853033,17.860023 59.0853033,32.4273618 L59.0853033,37.1693664 L51.4170357,29.5514862 L47.159026,33.8022465 L62.1343229,48.6790092 L76.999985,33.8720392 L72.7362604,29.62697 Z" id="Fill-11" fill="#25408F" mask="url(#mask-2)"></path>
                    </g>
                </g>
            </g>
        </g>
    </g>
</svg>