<?xml version="1.0" encoding="UTF-8"?>
<svg width="73px" height="77px" viewBox="0 0 73 77" version="1.1" xmlns="http://www.w3.org/2000/svg" xmlns:xlink="http://www.w3.org/1999/xlink">
    <!-- Generator: Sketch 54.1 (76490) - https://sketchapp.com -->
    <title>icon-run</title>
    <desc>Created with Sketch.</desc>
    <defs>
        <polygon id="path-1" points="5.99589322e-05 1.50390625e-05 72.8593963 1.50390625e-05 72.8593963 77 5.99589322e-05 77"></polygon>
    </defs>
    <g id="Designs" stroke="none" stroke-width="1" fill="none" fill-rule="evenodd">
        <g id="Desktop---Products---The-Richie-Brace" transform="translate(-404.000000, -934.000000)">
            <g id="Benefits" transform="translate(0.000000, 886.000000)">
                <g id="icon-run" transform="translate(404.000000, 48.000000)">
                    <mask id="mask-2" fill="white">
                        <use xlink:href="#path-1"></use>
                    </mask>
                    <g id="Clip-2"></g>
                    <path d="M21.5828772,42.9383432 C21.9793556,45.0820111 22.835869,47.1504838 24.1452222,48.9786322 L15.7620641,58.0855365 L5.99589322e-05,43.9011439 L4.01790801,39.4076225 L15.4241955,49.6723842 L21.5828772,42.9383432 Z M34.3299963,42.3966361 C33.1102817,41.2834447 33.0155466,39.3764916 34.1174419,38.1464467 L48.403407,22.2020326 L52.9237109,26.1861811 L36.5679634,44.4404447 L34.3299963,42.3966361 Z M60.223561,24.5854232 L36.7811175,3.92084902 L23.380446,18.640933 L27.8235528,22.7120072 L37.2437006,12.3643803 L43.8831031,18.2166811 L29.6428567,34.1105639 C26.3362715,37.801601 26.6219758,43.5211068 30.2799203,46.861433 L43.6774439,59.0954096 L31.4883926,73.0158666 L36.0086965,77.000015 L52.0998752,58.6230326 L41.0185651,48.5039994 L54.2066821,33.784517 L54.2066821,45.8802846 L72.7089593,45.8802846 L72.7089593,39.8430033 L60.223561,39.8430033 L60.223561,24.5854232 Z M63.8339881,6.03684512 C65.4929018,6.03684512 66.8424275,7.3909623 66.8424275,9.05518496 C66.8424275,10.719558 65.4929018,12.0736752 63.8339881,12.0736752 C62.1752242,12.0736752 60.8255487,10.719558 60.8255487,9.05518496 C60.8255487,7.3909623 62.1752242,6.03684512 63.8339881,6.03684512 L63.8339881,6.03684512 Z M63.8339881,18.1103549 C68.8104296,18.1103549 72.8594563,14.0486049 72.8594563,9.05518496 C72.8594563,4.0623666 68.8104296,1.50390625e-05 63.8339881,1.50390625e-05 C58.8575466,1.50390625e-05 54.8085199,4.0623666 54.8085199,9.05518496 C54.8085199,14.0486049 58.8575466,18.1103549 63.8339881,18.1103549 L63.8339881,18.1103549 Z" id="Fill-1" fill="#25408F" mask="url(#mask-2)"></path>
                </g>
            </g>
        </g>
    </g>
</svg>