<?xml version="1.0" encoding="UTF-8"?>
<svg width="19px" height="22px" viewBox="0 0 19 22" version="1.1" xmlns="http://www.w3.org/2000/svg" xmlns:xlink="http://www.w3.org/1999/xlink">
    <!-- Generator: Sketch 52 (66869) - http://www.bohemiancoding.com/sketch -->
    <title>icon-shield</title>
    <desc>Created with Sketch.</desc>
    <g id="Symbols" stroke="none" stroke-width="1" fill="none" fill-rule="evenodd">
        <g id="ðŸ¼Icons/PlaceholderðŸ¼-Copy-4" transform="translate(-3.000000, -1.000000)" fill="#25408F">
            <path d="M12.118,1 C11.395,1.016 10.696,1.238 10.092,1.645 C9.133,2.289 7.214,3.428 5.13,3.801 C3.895,4.023 3,5.09 3,6.341 L3,11.527 C3,13.24 3.479,14.912 4.425,16.491 C5.165,17.729 6.19,18.91 7.471,20.005 C9.626,21.845 11.759,22.805 11.849,22.844 L12.199,23 L12.548,22.844 C12.638,22.805 14.772,21.845 16.926,20.005 C18.207,18.91 19.232,17.729 19.972,16.491 C20.917,14.912 21.397,13.24 21.397,11.527 L21.397,6.341 C21.397,5.09 20.501,4.023 19.267,3.801 C17.183,3.428 15.264,2.289 14.305,1.645 C13.701,1.238 13.003,1.016 12.28,1 L12.118,1 Z M4.72,11.527 L4.72,6.341 C4.72,5.924 5.02,5.568 5.434,5.493 C7.828,5.065 9.981,3.791 11.052,3.07 C11.393,2.841 11.79,2.719 12.199,2.719 C12.607,2.719 13.003,2.841 13.345,3.07 C14.416,3.791 16.569,5.064 18.963,5.493 C19.377,5.568 19.678,5.923 19.678,6.341 L19.678,11.527 C19.678,14.081 18.387,16.485 15.842,18.669 C14.363,19.94 12.86,20.768 12.199,21.104 C10.678,20.331 4.72,16.956 4.72,11.527 Z M11.276,13.285 L8.493,10.636 L7.307,11.881 L11.373,15.751 L17.566,8.855 L16.288,7.706 L11.276,13.285 Z" id="icon-shield"></path>
        </g>
    </g>
</svg>