<?xml version="1.0" encoding="UTF-8"?>
<svg width="92px" height="52px" viewBox="0 0 92 52" version="1.1" xmlns="http://www.w3.org/2000/svg" xmlns:xlink="http://www.w3.org/1999/xlink">
    <!-- Generator: Sketch 54.1 (76490) - https://sketchapp.com -->
    <title>icon-shoe</title>
    <desc>Created with Sketch.</desc>
    <defs>
        <polygon id="path-1" points="0 5.41666667e-05 92 5.41666667e-05 92 51.8931111 0 51.8931111"></polygon>
    </defs>
    <g id="Designs" stroke="none" stroke-width="1" fill="none" fill-rule="evenodd">
        <g id="Desktop---Products---Geckos-orthotics" transform="translate(-674.000000, -906.000000)">
            <g id="icon-shoe" transform="translate(674.000000, 906.000000)">
                <mask id="mask-2" fill="white">
                    <use xlink:href="#path-1"></use>
                </mask>
                <g id="Clip-2"></g>
                <path d="M5.390625,36.6750403 L5.390625,16.3793319 C5.390625,14.8406375 6.63621875,13.5893875 8.16715625,13.5893875 C9.2416875,13.5893875 10.2296094,14.2218736 10.6836797,15.2003042 L11.2696406,16.4632903 C13.3541953,20.9560542 17.8887891,23.8593875 22.8222891,23.8593875 C29.8507656,23.8593875 35.5687813,18.1135681 35.5687813,11.0513181 L35.5687813,8.95940139 C35.5687813,7.00597083 37.1503906,5.41672083 39.0944297,5.41672083 C39.9166797,5.41672083 40.7177266,5.70759583 41.3498672,6.23644306 L46.5430156,10.5797069 L40.6259063,16.5252208 L44.4376172,20.3553458 L50.7036797,14.0593736 L53.0451875,16.0176792 L47.3950938,21.6948875 L51.2068047,25.5251931 L57.2058516,19.4971653 L59.5475391,21.4556514 L54.1642813,26.8647347 L57.9759922,30.6948597 L63.7466563,24.8963181 C67.571125,27.6676653 72.1962813,29.1794569 76.9326641,29.1794569 L78.0027031,29.1794569 C82.3594063,29.1794569 85.9678906,32.4498597 86.5308516,36.6750403 L5.390625,36.6750403 Z M78.0023438,46.4764986 L13.9976563,46.4764986 C10.7940078,46.4764986 7.99555469,44.7070542 6.51367188,42.0913458 L85.4863281,42.0913458 C84.0044453,44.7070542 81.2059922,46.4764986 78.0023438,46.4764986 L78.0023438,46.4764986 Z M78.0023438,23.7624292 L76.9323047,23.7624292 C72.9344375,23.7624292 69.0404297,22.3472347 65.9674141,19.7773875 L44.7980703,2.07283194 C43.1995703,0.736179167 41.1739531,5.41666667e-05 39.09425,5.41666667e-05 C34.1778203,5.41666667e-05 30.1779766,4.01922083 30.1779766,8.95940139 L30.1779766,11.0513181 C30.1779766,15.1266375 26.8781953,18.4427208 22.8221094,18.4427208 C19.9751406,18.4427208 17.3585312,16.7671653 16.1553438,14.1745681 L15.5693828,12.9115819 C14.2335859,10.0326236 11.3280391,8.17272083 8.16715625,8.17272083 C3.66382813,8.17272083 0,11.8538875 0,16.3793319 L0,37.8278875 C0,45.5834708 6.27935937,51.8931653 13.9976563,51.8931653 L78.0023438,51.8931653 C85.7206406,51.8931653 92,45.5834708 92,37.8278875 C92,30.0723042 85.7206406,23.7624292 78.0023438,23.7624292 L78.0023438,23.7624292 Z" id="Fill-1" fill="#25408F" mask="url(#mask-2)"></path>
            </g>
        </g>
    </g>
</svg>